<?xml version="1.0" encoding="UTF-8"?>
<svg width="600px" height="900px" viewBox="0 0 600 900" version="1.1" xmlns="http://www.w3.org/2000/svg" xmlns:xlink="http://www.w3.org/1999/xlink">
    <title>card</title>
    <defs>
        <linearGradient x1="57.3814815%" y1="111.852222%" x2="-17.0963704%" y2="-19.2393333%" id="linearGradient-1">
            <stop stop-color="#44BCF0" offset="0%"></stop>
            <stop stop-color="#7298F8" offset="37.8795%"></stop>
            <stop stop-color="#A099FF" offset="100%"></stop>
        </linearGradient>
        <linearGradient x1="63.7747178%" y1="111.851722%" x2="-28.7744646%" y2="-51.048298%" id="linearGradient-2">
            <stop stop-color="#44BCF0" offset="0%"></stop>
            <stop stop-color="#7298F8" offset="37.8795%"></stop>
            <stop stop-color="#A099FF" offset="100%"></stop>
        </linearGradient>
    </defs>
    <g id="Page-1" stroke="none" stroke-width="1" fill="none" fill-rule="evenodd">
        <g id="card" fill-rule="nonzero">
            <path d="M0,0 L600,0 L600,900 L0,900 L0,0 Z M544,40 L176,40 C167.169,40 160.009,47.1549 160,55.9842 L160,56 L160,84.7242 C160,126.298 126.298,160 84.7243,160 L40,160 L56,160 C47.1634,160 40,167.163 40,176 L40,560 L560,560 L560,56 C560,47.1634 552.837,40 544,40 Z" id="Shape" fill="url(#linearGradient-1)"></path>
            <path d="M40,560 L560,560 L560,844 C560,852.837 552.837,860 544,860 L56,860 C47.1634,860 40,852.837 40,844 L40,560 Z" id="Path" fill-opacity="0.75" fill="#FFFFFF"></path>
            <rect id="Rectangle" fill="#FFFFFF" x="140" y="535" width="320" height="50" rx="8"></rect>
            <rect id="Rectangle" fill="#FFFFFF" x="40" y="40" width="90" height="90" rx="45"></rect>
            <path d="M65.6546,70.2138 C66.1861,69.2384 66.9531,68.4069 67.888,67.7925 L83.5783,57.0007 L67.5017,83.1847 C67.5017,83.1847 66.097,80.8466 65.5492,79.6635 C64.8665,78.176 64.5223,76.5596 64.5404,74.9272 C64.5586,73.2949 64.9389,71.6862 65.6546,70.2138 Z M59.179,88.2763 C59.3561,90.7803 60.0744,93.218 61.2857,95.4264 C62.4969,97.6349 64.1733,99.5627 66.2024,101.081 L83.5572,113.001 C83.5572,113.001 72.699,97.5878 63.5405,82.2509 C62.6133,80.6305 61.99,78.859 61.7004,77.021 C61.5722,76.1887 61.5722,75.3421 61.7004,74.5098 C61.4616,74.9457 60.9981,75.8381 60.9981,75.8381 C60.0694,77.7034 59.437,79.6983 59.1228,81.7528 C58.942,83.9245 58.9608,86.1079 59.179,88.2763 Z M103.426,90.3516 C102.864,89.1687 101.474,86.8304 101.474,86.8304 L85.4255,113.001 L101.116,102.216 C102.051,101.601 102.818,100.77 103.349,99.7946 C104.065,98.3221 104.445,96.7134 104.463,95.0812 C104.482,93.4488 104.137,91.8322 103.455,90.3447 L103.426,90.3516 Z M109.797,81.732 C109.619,79.2281 108.901,76.7902 107.69,74.5819 C106.479,72.3735 104.802,70.4455 102.773,68.9271 L85.4464,57.0007 C85.4464,57.0007 96.2976,72.4137 105.463,87.7505 C106.388,89.3714 107.009,91.1429 107.296,92.9804 C107.424,93.8127 107.424,94.6593 107.296,95.4916 C107.535,95.0557 107.999,94.1633 107.999,94.1633 C108.927,92.2979 109.56,90.3031 109.874,88.2485 C110.057,86.077 110.041,83.8937 109.825,81.7251 L109.797,81.732 Z" id="Shape" fill="url(#linearGradient-2)"></path>
            <path d="M172.996094,569 L172.996094,562.507812 L178.773438,551.726562 L174.683594,551.726562 L171.25,559.25 L167.664062,551.726562 L163.410156,551.726562 L169.386719,562.507812 L169.386719,569 L172.996094,569 Z M187.576562,569.480469 C190.045312,569.480469 191.932031,568.808594 193.236719,567.464844 C194.978906,565.816406 195.85,563.441406 195.85,560.339844 C195.85,557.175781 194.978906,554.800781 193.236719,553.214844 C191.932031,551.871094 190.045312,551.199219 187.576562,551.199219 C185.107812,551.199219 183.221094,551.871094 181.916406,553.214844 C180.166406,554.800781 179.291406,557.175781 179.291406,560.339844 C179.291406,563.441406 180.166406,565.816406 181.916406,567.464844 C183.221094,568.808594 185.107812,569.480469 187.576562,569.480469 Z M187.576562,566.421875 C186.146875,566.421875 185.00625,565.894531 184.154687,564.839844 C183.303125,563.785156 182.877344,562.285156 182.877344,560.339844 C182.877344,558.394531 183.303125,556.894531 184.154687,555.839844 C185.00625,554.785156 186.146875,554.257812 187.576562,554.257812 C189.00625,554.257812 190.141016,554.787109 190.980859,555.845703 C191.820703,556.904297 192.240625,558.402344 192.240625,560.339844 C192.240625,562.285156 191.822656,563.785156 190.986719,564.839844 C190.142969,565.894531 189.00625,566.421875 187.576562,566.421875 Z M204.653125,569.445312 C207.645312,569.445312 209.672656,568.507812 210.735156,566.632812 C211.305469,565.609375 211.590625,564.179688 211.590625,562.34375 L211.590625,562.34375 L211.590625,551.726562 L207.922656,551.726562 L207.922656,562.34375 C207.922656,563.53125 207.782031,564.398438 207.500781,564.945312 C207.063281,565.914062 206.114062,566.398438 204.653125,566.398438 C203.184375,566.398438 202.23125,565.914062 201.79375,564.945312 C201.5125,564.398438 201.371875,563.53125 201.371875,562.34375 L201.371875,562.34375 L201.371875,551.726562 L197.703906,551.726562 L197.703906,562.34375 C197.703906,564.179688 197.989062,565.609375 198.559375,566.632812 C199.629687,568.507812 201.660937,569.445312 204.653125,569.445312 Z M217.745313,569 L217.745313,562.226562 L221.471875,562.226562 C222.534375,562.226562 223.258984,562.410156 223.645703,562.777344 C224.032422,563.144531 224.233594,563.878906 224.249219,564.980469 L224.249219,564.980469 L224.272656,566.585938 C224.280469,567.09375 224.33125,567.589844 224.425,568.074219 C224.471875,568.308594 224.55,568.617188 224.659375,569 L224.659375,569 L228.632031,569 L228.632031,568.566406 C228.288281,568.355469 228.069531,568.027344 227.975781,567.582031 C227.913281,567.300781 227.882031,566.765625 227.882031,565.976562 L227.882031,564.816406 C227.882031,563.605469 227.716016,562.705078 227.383984,562.115234 C227.051953,561.525391 226.4875,561.070312 225.690625,560.75 C226.64375,560.421875 227.327344,559.861328 227.741406,559.068359 C228.155469,558.275391 228.3625,557.46875 228.3625,556.648438 C228.3625,555.96875 228.253125,555.363281 228.034375,554.832031 C227.815625,554.300781 227.51875,553.816406 227.14375,553.378906 C226.690625,552.847656 226.137891,552.445312 225.485547,552.171875 C224.833203,551.898438 223.901563,551.75 222.690625,551.726562 L222.690625,551.726562 L214.217969,551.726562 L214.217969,569 L217.745313,569 Z M221.835156,559.367188 L217.745313,559.367188 L217.745313,554.726562 L221.940625,554.726562 C222.721875,554.726562 223.307813,554.828125 223.698438,555.03125 C224.39375,555.390625 224.741406,556.09375 224.741406,557.140625 C224.741406,558.109375 224.382031,558.757812 223.663281,559.085938 C223.257031,559.273438 222.647656,559.367188 221.835156,559.367188 L221.835156,559.367188 Z M243.109375,569 L245.195312,558.898438 L245.804688,555.558594 L246.414062,558.898438 L248.5,569 L251.945312,569 L256.808594,551.726562 L253.140625,551.726562 L250.832031,561.722656 L250.304688,564.371094 L249.777344,561.617188 L247.726562,551.726562 L243.917969,551.726562 L241.972656,561.675781 L241.46875,564.371094 L240.976562,561.617188 L238.691406,551.726562 L234.859375,551.726562 L239.757812,569 L243.109375,569 Z M271.283594,569 L271.283594,565.894531 L261.721094,565.894531 L261.721094,561.453125 L270.111719,561.453125 L270.111719,558.453125 L261.721094,558.453125 L261.721094,554.785156 L270.861719,554.785156 L270.861719,551.726562 L258.19375,551.726562 L258.19375,569 L271.283594,569 Z M281.082812,569 C281.965625,569 282.783984,568.921875 283.537891,568.765625 C284.291797,568.609375 284.946094,568.320312 285.500781,567.898438 C285.992969,567.53125 286.403125,567.078125 286.73125,566.539062 C287.246875,565.726562 287.504687,564.808594 287.504687,563.785156 C287.504687,562.792969 287.280078,561.949219 286.830859,561.253906 C286.381641,560.558594 285.715625,560.050781 284.832812,559.730469 C285.410937,559.433594 285.848437,559.105469 286.145312,558.746094 C286.676562,558.105469 286.942187,557.257812 286.942187,556.203125 C286.942187,555.179688 286.676562,554.300781 286.145312,553.566406 C285.2625,552.371094 283.7625,551.757812 281.645312,551.726562 L281.645312,551.726562 L273.254687,551.726562 L273.254687,569 L281.082812,569 Z M280.942187,558.535156 L276.7,558.535156 L276.7,554.726562 L280.496875,554.726562 C281.332812,554.726562 282.020312,554.816406 282.559375,554.996094 C283.184375,555.253906 283.496875,555.785156 283.496875,556.589844 C283.496875,557.316406 283.2625,557.820312 282.79375,558.101562 C282.317187,558.390625 281.7,558.535156 280.942187,558.535156 L280.942187,558.535156 Z M280.942187,566 L276.7,566 L276.7,561.394531 L281.000781,561.394531 C281.750781,561.402344 282.332812,561.5 282.746875,561.6875 C283.489062,562.023438 283.860156,562.640625 283.860156,563.539062 C283.860156,564.601562 283.477344,565.320312 282.711719,565.695312 C282.289844,565.898438 281.7,566 280.942187,566 L280.942187,566 Z M294.26875,569.421875 C296.221875,569.421875 297.696484,568.876953 298.692578,567.787109 C299.688672,566.697266 300.186719,565.433594 300.186719,563.996094 C300.186719,562.628906 299.760937,561.550781 298.909375,560.761719 C298.339062,560.238281 297.901562,559.976562 297.596875,559.976562 C298.003125,559.820312 298.39375,559.527344 298.76875,559.097656 C299.3625,558.410156 299.659375,557.566406 299.659375,556.566406 C299.659375,555.152344 299.161328,554.025391 298.165234,553.185547 C297.169141,552.345703 295.858594,551.925781 294.233594,551.925781 C293.358594,551.925781 292.620312,552.03125 292.01875,552.242188 C291.417187,552.453125 290.897656,552.757812 290.460156,553.15625 C289.874219,553.71875 289.444531,554.332031 289.171094,554.996094 C288.913281,555.753906 288.76875,556.554688 288.7375,557.398438 L288.7375,557.398438 L291.854687,557.398438 C291.839062,556.5625 292.01875,555.894531 292.39375,555.394531 C292.760937,554.894531 293.339062,554.644531 294.128125,554.644531 C294.815625,554.644531 295.348828,554.847656 295.727734,555.253906 C296.106641,555.660156 296.296094,556.1875 296.296094,556.835938 C296.296094,557.835938 295.925,558.5 295.182812,558.828125 C294.753125,559.023438 293.995312,559.128906 292.909375,559.144531 L292.909375,559.144531 L292.909375,561.535156 C294.01875,561.535156 294.83125,561.640625 295.346875,561.851562 C296.253125,562.226562 296.70625,562.972656 296.70625,564.089844 C296.70625,564.933594 296.462109,565.580078 295.973828,566.029297 C295.485547,566.478516 294.913281,566.703125 294.257031,566.703125 C293.186719,566.703125 292.448437,566.292969 292.042187,565.472656 C291.823437,565.027344 291.714062,564.464844 291.714062,563.785156 L291.714062,563.785156 L288.432812,563.785156 C288.4875,565.136719 288.760937,566.230469 289.253125,567.066406 C290.190625,568.636719 291.8625,569.421875 294.26875,569.421875 Z M314.792969,569.445312 C317.785156,569.445312 319.8125,568.507812 320.875,566.632812 C321.445312,565.609375 321.730469,564.179688 321.730469,562.34375 L321.730469,562.34375 L321.730469,551.726562 L318.0625,551.726562 L318.0625,562.34375 C318.0625,563.53125 317.921875,564.398438 317.640625,564.945312 C317.203125,565.914062 316.253906,566.398438 314.792969,566.398438 C313.324219,566.398438 312.371094,565.914062 311.933594,564.945312 C311.652344,564.398438 311.511719,563.53125 311.511719,562.34375 L311.511719,562.34375 L311.511719,551.726562 L307.84375,551.726562 L307.84375,562.34375 C307.84375,564.179688 308.128906,565.609375 308.699219,566.632812 C309.769531,568.507812 311.800781,569.445312 314.792969,569.445312 Z M330.685937,569.445312 C332.889062,569.445312 334.594141,568.923828 335.801172,567.880859 C337.008203,566.837891 337.611719,565.527344 337.611719,563.949219 C337.611719,562.410156 337.096094,561.234375 336.064844,560.421875 C335.400781,559.898438 334.416406,559.480469 333.111719,559.167969 L333.111719,559.167969 L330.135156,558.453125 C328.986719,558.179688 328.236719,557.941406 327.885156,557.738281 C327.338281,557.433594 327.064844,556.972656 327.064844,556.355469 C327.064844,555.683594 327.342187,555.160156 327.896875,554.785156 C328.451562,554.410156 329.19375,554.222656 330.123437,554.222656 C330.959375,554.222656 331.658594,554.367188 332.221094,554.65625 C333.064844,555.09375 333.517969,555.832031 333.580469,556.871094 L333.580469,556.871094 L337.049219,556.871094 C336.986719,555.035156 336.312891,553.634766 335.027734,552.669922 C333.742578,551.705078 332.189844,551.222656 330.369531,551.222656 C328.189844,551.222656 326.5375,551.734375 325.4125,552.757812 C324.2875,553.78125 323.725,555.066406 323.725,556.613281 C323.725,558.308594 324.307031,559.554688 325.471094,560.351562 C326.158594,560.828125 327.400781,561.269531 329.197656,561.675781 L329.197656,561.675781 L331.025781,562.085938 C332.096094,562.320312 332.88125,562.589844 333.38125,562.894531 C333.88125,563.207031 334.13125,563.648438 334.13125,564.21875 C334.13125,565.195312 333.627344,565.863281 332.619531,566.222656 C332.088281,566.410156 331.396875,566.503906 330.545312,566.503906 C329.123437,566.503906 328.119531,566.148438 327.533594,565.4375 C327.213281,565.046875 326.998437,564.457031 326.889062,563.667969 L326.889062,563.667969 L323.44375,563.667969 C323.44375,565.464844 324.088281,566.876953 325.377344,567.904297 C326.666406,568.931641 328.435937,569.445312 330.685937,569.445312 Z M352.578906,569 L352.578906,565.894531 L343.016406,565.894531 L343.016406,561.453125 L351.407031,561.453125 L351.407031,558.453125 L343.016406,558.453125 L343.016406,554.785156 L352.157031,554.785156 L352.157031,551.726562 L339.489062,551.726562 L339.489062,569 L352.578906,569 Z M358.100781,569 L358.100781,562.226562 L361.827344,562.226562 C362.889844,562.226562 363.614453,562.410156 364.001172,562.777344 C364.387891,563.144531 364.589062,563.878906 364.604687,564.980469 L364.604687,564.980469 L364.628125,566.585938 C364.635937,567.09375 364.686719,567.589844 364.780469,568.074219 C364.827344,568.308594 364.905469,568.617188 365.014844,569 L365.014844,569 L368.9875,569 L368.9875,568.566406 C368.64375,568.355469 368.425,568.027344 368.33125,567.582031 C368.26875,567.300781 368.2375,566.765625 368.2375,565.976562 L368.2375,565.976562 L368.2375,564.816406 C368.2375,563.605469 368.071484,562.705078 367.739453,562.115234 C367.407422,561.525391 366.842969,561.070312 366.046094,560.75 C366.999219,560.421875 367.682812,559.861328 368.096875,559.068359 C368.510937,558.275391 368.717969,557.46875 368.717969,556.648438 C368.717969,555.96875 368.608594,555.363281 368.389844,554.832031 C368.171094,554.300781 367.874219,553.816406 367.499219,553.378906 C367.046094,552.847656 366.493359,552.445312 365.841016,552.171875 C365.188672,551.898438 364.257031,551.75 363.046094,551.726562 L363.046094,551.726562 L354.573437,551.726562 L354.573437,569 L358.100781,569 Z M362.190625,559.367188 L358.100781,559.367188 L358.100781,554.726562 L362.296094,554.726562 C363.077344,554.726562 363.663281,554.828125 364.053906,555.03125 C364.749219,555.390625 365.096875,556.09375 365.096875,557.140625 C365.096875,558.109375 364.7375,558.757812 364.01875,559.085938 C363.6125,559.273438 363.003125,559.367188 362.190625,559.367188 L362.190625,559.367188 Z M374.228125,569 L374.228125,556.730469 L381.282812,569 L384.892187,569 L384.892187,551.726562 L381.528906,551.726562 L381.528906,563.785156 L374.65,551.726562 L370.864844,551.726562 L370.864844,569 L374.228125,569 Z M389.910156,569 L391.105469,565.449219 L397.46875,565.449219 L398.582031,569 L402.496094,569 L396.378906,551.726562 L392.300781,551.726562 L386.136719,569 L389.910156,569 Z M396.460937,562.472656 L392.078125,562.472656 L394.304687,555.675781 L396.460937,562.472656 Z M407.092187,569 L407.092187,557.316406 C407.092187,556.980469 407.088281,556.509766 407.080469,555.904297 L407.07736,555.6533 C407.07162,555.168288 407.06875,554.785156 407.06875,554.503906 L407.06875,554.503906 L410.314844,569 L413.81875,569 L417.088281,554.503906 C417.088281,554.832031 417.084375,555.298828 417.076562,555.904297 L417.073453,556.155533 C417.067714,556.641502 417.064844,557.02846 417.064844,557.316406 L417.064844,557.316406 L417.064844,569 L420.428125,569 L420.428125,551.726562 L415.236719,551.726562 L412.119531,565.308594 L408.978906,551.726562 L403.728906,551.726562 L403.728906,569 L407.092187,569 Z M436.075,569 L436.075,565.894531 L426.5125,565.894531 L426.5125,561.453125 L434.903125,561.453125 L434.903125,558.453125 L426.5125,558.453125 L426.5125,554.785156 L435.653125,554.785156 L435.653125,551.726562 L422.985156,551.726562 L422.985156,569 L436.075,569 Z" id="YOURWEB3USERNAME" fill="#000000"></path>
        </g>
    </g>
</svg>