<?xml version="1.0" encoding="UTF-8"?>
<svg width="600px" height="900px" viewBox="0 0 600 900" version="1.1" xmlns="http://www.w3.org/2000/svg" xmlns:xlink="http://www.w3.org/1999/xlink">
    <title>card</title>
    <defs>
        <linearGradient x1="57.3814815%" y1="111.852222%" x2="-17.0963704%" y2="-19.2393333%" id="linearGradient-1">
            <stop stop-color="#44BCF0" offset="0%"></stop>
            <stop stop-color="#7298F8" offset="37.8795%"></stop>
            <stop stop-color="#A099FF" offset="100%"></stop>
        </linearGradient>
        <linearGradient x1="63.7747178%" y1="111.851722%" x2="-28.7744646%" y2="-51.048298%" id="linearGradient-2">
            <stop stop-color="#44BCF0" offset="0%"></stop>
            <stop stop-color="#7298F8" offset="37.8795%"></stop>
            <stop stop-color="#A099FF" offset="100%"></stop>
        </linearGradient>
    </defs>
    <g id="Page-1" stroke="none" stroke-width="1" fill="none" fill-rule="evenodd">
        <g id="card">
            <path d="M0,0 L600,0 L600,900 L0,900 L0,0 Z M544,40 L176,40 C167.169,40 160.009,47.1549 160,55.9842 L160,56 L160,84.7242 C160,126.298 126.298,160 84.7243,160 L40,160 L56,160 C47.1634,160 40,167.163 40,176 L40,560 L560,560 L560,56 C560,47.1634 552.837,40 544,40 Z" id="Shape" fill="url(#linearGradient-1)"></path>
            <path d="M40,560 L560,560 L560,844 C560,852.837 552.837,860 544,860 L56,860 C47.1634,860 40,852.837 40,844 L40,560 Z" id="Path" fill-opacity="0.75" fill="#FFFFFF" fill-rule="nonzero"></path>
            <rect id="Rectangle" fill="#FFFFFF" fill-rule="nonzero" x="140" y="535" width="320" height="50" rx="8"></rect>
            <path d="M361.408,570.612 L361.408,568.087 L352.142,568.087 L356.303,564.481 C359.854,561.402 361.269,559.376 361.269,556.519 C361.269,552.663 358.689,550.222 354.666,550.222 C350.589,550.222 347.87,553.024 347.787,557.324 L350.505,557.324 C350.561,554.466 352.17,552.663 354.639,552.663 C357.052,552.663 358.495,554.161 358.495,556.686 C358.495,558.822 357.579,560.181 354.334,562.983 L347.87,568.559 L347.87,570.639 L361.408,570.612 Z" id="Path" fill="#000000" fill-rule="nonzero"></path>
            <path d="M363.91,560.625 C363.91,566.867 366.989,571 372.177,571 C377.336,571 380.416,566.867 380.416,560.625 C380.416,554.411 377.198,550.194 372.177,550.194 C367.128,550.194 363.91,554.411 363.91,560.625 Z M366.601,560.625 C366.601,555.631 368.653,552.635 372.177,552.635 C375.7,552.635 377.725,555.631 377.725,560.625 C377.725,565.563 375.7,568.559 372.177,568.559 C368.653,568.559 366.601,565.563 366.601,560.625 Z" id="Shape" fill="#000000" fill-rule="nonzero"></path>
            <path d="M396.599,570.612 L396.599,568.087 L387.333,568.087 L391.494,564.481 C395.045,561.402 396.46,559.376 396.46,556.519 C396.46,552.663 393.88,550.222 389.858,550.222 C385.78,550.222 383.061,553.024 382.978,557.324 L385.696,557.324 C385.752,554.466 387.361,552.663 389.83,552.663 C392.243,552.663 393.686,554.161 393.686,556.686 C393.686,558.822 392.77,560.181 389.525,562.983 L383.061,568.559 L383.061,570.639 L396.599,570.612 Z" id="Path" fill="#000000" fill-rule="nonzero"></path>
            <path d="M404.952,560.264 C408.142,560.264 409.806,561.873 409.806,564.287 C409.806,566.867 408.114,568.531 405.506,568.531 C402.982,568.531 401.373,567.005 401.373,564.398 L398.682,564.398 C398.682,568.559 401.512,570.972 405.451,570.972 C409.529,570.972 412.58,568.392 412.58,564.342 C412.58,560.736 410,558.433 406.588,558.017 L412.081,552.774 L412.081,550.583 L399.625,550.583 L399.625,552.996 L408.641,552.996 L402.954,558.461 L402.954,560.264 L404.952,560.264 Z" id="Path" fill="#000000" fill-rule="nonzero"></path>
            <rect id="Rectangle" fill="#FFFFFF" fill-rule="nonzero" x="40" y="40" width="90" height="90" rx="45"></rect>
            <path d="M65.6546,70.2138 C66.1861,69.2384 66.9531,68.4069 67.888,67.7925 L83.5783,57.0007 L67.5017,83.1847 C67.5017,83.1847 66.097,80.8466 65.5492,79.6635 C64.8665,78.176 64.5223,76.5596 64.5404,74.9272 C64.5586,73.2949 64.9389,71.6862 65.6546,70.2138 Z M59.179,88.2763 C59.3561,90.7803 60.0744,93.218 61.2857,95.4264 C62.4969,97.6349 64.1733,99.5627 66.2024,101.081 L83.5572,113.001 C83.5572,113.001 72.699,97.5878 63.5405,82.2509 C62.6133,80.6305 61.99,78.859 61.7004,77.021 C61.5722,76.1887 61.5722,75.3421 61.7004,74.5098 C61.4616,74.9457 60.9981,75.8381 60.9981,75.8381 C60.0694,77.7034 59.437,79.6983 59.1228,81.7528 C58.942,83.9245 58.9608,86.1079 59.179,88.2763 Z M103.426,90.3516 C102.864,89.1687 101.474,86.8304 101.474,86.8304 L85.4255,113.001 L101.116,102.216 C102.051,101.601 102.818,100.77 103.349,99.7946 C104.065,98.3221 104.445,96.7134 104.463,95.0812 C104.482,93.4488 104.137,91.8322 103.455,90.3447 L103.426,90.3516 Z M109.797,81.732 C109.619,79.2281 108.901,76.7902 107.69,74.5819 C106.479,72.3735 104.802,70.4455 102.773,68.9271 L85.4464,57.0007 C85.4464,57.0007 96.2976,72.4137 105.463,87.7505 C106.388,89.3714 107.009,91.1429 107.296,92.9804 C107.424,93.8127 107.424,94.6593 107.296,95.4916 C107.535,95.0557 107.999,94.1633 107.999,94.1633 C108.927,92.2979 109.56,90.3031 109.874,88.2485 C110.057,86.077 110.041,83.8937 109.825,81.7251 L109.797,81.732 Z" id="Shape" fill="url(#linearGradient-2)" fill-rule="nonzero"></path>
            <path d="M191.621338,571 C194.611247,571 196.822347,569.769124 198.254639,567.307373 C199.310954,565.481201 199.839111,563.252197 199.839111,560.620361 C199.839111,559.58195 199.713786,558.489827 199.463135,557.343994 C199.212484,556.198161 198.742513,555.132894 198.053223,554.148193 C197.193848,552.930745 196.070394,552.09375 194.682861,551.637207 C193.868245,551.368652 192.847738,551.225423 191.621338,551.20752 L191.621338,551.20752 L183.094727,551.20752 L183.094727,571 L191.621338,571 Z M190.923096,567.5625 L187.109619,567.5625 L187.109619,554.64502 L190.923096,554.64502 C192.802979,554.64502 194.06071,555.182129 194.696289,556.256348 C195.322917,557.339518 195.63623,558.888184 195.63623,560.902344 C195.63623,562.361491 195.425863,563.619222 195.005127,564.675537 C194.23527,566.600179 192.874593,567.5625 190.923096,567.5625 L190.923096,567.5625 Z M204.850342,571 L206.219971,566.931396 L213.51123,566.931396 L214.786865,571 L219.271729,571 L212.262451,551.20752 L207.5896,551.20752 L200.526611,571 L204.850342,571 Z M212.356445,563.520752 L207.334473,563.520752 L209.885742,555.732666 L212.356445,563.520752 Z M229.506348,571.550537 C232.335124,571.550537 234.496989,570.78068 235.991943,569.240967 C237.9882,567.352132 238.986328,564.630778 238.986328,561.076904 C238.986328,557.451416 237.9882,554.730062 235.991943,552.912842 C234.496989,551.373128 232.335124,550.603271 229.506348,550.603271 C226.677572,550.603271 224.515706,551.373128 223.020752,552.912842 C221.015544,554.730062 220.012939,557.451416 220.012939,561.076904 C220.012939,564.630778 221.015544,567.352132 223.020752,569.240967 C224.515706,570.78068 226.677572,571.550537 229.506348,571.550537 Z M229.506348,568.045898 C227.868164,568.045898 226.561198,567.44165 225.585449,566.233154 C224.609701,565.024658 224.121826,563.305908 224.121826,561.076904 C224.121826,558.8479 224.609701,557.12915 225.585449,555.920654 C226.561198,554.712158 227.868164,554.10791 229.506348,554.10791 C231.144531,554.10791 232.444784,554.714396 233.407104,555.927368 C234.369425,557.14034 234.850586,558.856852 234.850586,561.076904 C234.850586,563.305908 234.371663,565.024658 233.413818,566.233154 C232.447021,567.44165 231.144531,568.045898 229.506348,568.045898 Z M256.179199,571 L256.179199,554.712158 L262.10083,554.712158 L262.10083,551.20752 L246.068115,551.20752 L246.068115,554.712158 L252.016602,554.712158 L252.016602,571 L256.179199,571 Z M271.758057,571.550537 C274.586833,571.550537 276.748698,570.78068 278.243652,569.240967 C280.239909,567.352132 281.238037,564.630778 281.238037,561.076904 C281.238037,557.451416 280.239909,554.730062 278.243652,552.912842 C276.748698,551.373128 274.586833,550.603271 271.758057,550.603271 C268.929281,550.603271 266.767415,551.373128 265.272461,552.912842 C263.267253,554.730062 262.264648,557.451416 262.264648,561.076904 C262.264648,564.630778 263.267253,567.352132 265.272461,569.240967 C266.767415,570.78068 268.929281,571.550537 271.758057,571.550537 Z M271.758057,568.045898 C270.119873,568.045898 268.812907,567.44165 267.837158,566.233154 C266.86141,565.024658 266.373535,563.305908 266.373535,561.076904 C266.373535,558.8479 266.86141,557.12915 267.837158,555.920654 C268.812907,554.712158 270.119873,554.10791 271.758057,554.10791 C273.39624,554.10791 274.696493,554.714396 275.658813,555.927368 C276.621134,557.14034 277.102295,558.856852 277.102295,561.076904 C277.102295,563.305908 276.623372,565.024658 275.665527,566.233154 C274.69873,567.44165 273.39624,568.045898 271.758057,568.045898 Z M287.498047,571 L287.498047,564.380127 L289.471924,562.352539 L295.581543,571 L300.898926,571 L292.372314,559.358154 L300.482666,551.20752 L295.138428,551.20752 L287.498047,559.358154 L287.498047,551.20752 L283.429443,551.20752 L283.429443,571 L287.498047,571 Z M311.549805,571 L311.549805,563.561035 L318.169678,551.20752 L313.483398,551.20752 L309.549072,559.828125 L305.440186,551.20752 L300.565918,551.20752 L307.414062,563.561035 L307.414062,571 L311.549805,571 Z M328.256592,571.550537 C331.085368,571.550537 333.247233,570.78068 334.742188,569.240967 C336.738444,567.352132 337.736572,564.630778 337.736572,561.076904 C337.736572,557.451416 336.738444,554.730062 334.742188,552.912842 C333.247233,551.373128 331.085368,550.603271 328.256592,550.603271 C325.427816,550.603271 323.265951,551.373128 321.770996,552.912842 C319.765788,554.730062 318.763184,557.451416 318.763184,561.076904 C318.763184,564.630778 319.765788,567.352132 321.770996,569.240967 C323.265951,570.78068 325.427816,571.550537 328.256592,571.550537 Z M328.256592,568.045898 C326.618408,568.045898 325.311442,567.44165 324.335693,566.233154 C323.359945,565.024658 322.87207,563.305908 322.87207,561.076904 C322.87207,558.8479 323.359945,557.12915 324.335693,555.920654 C325.311442,554.712158 326.618408,554.10791 328.256592,554.10791 C329.894775,554.10791 331.195028,554.714396 332.157349,555.927368 C333.11967,557.14034 333.60083,558.856852 333.60083,561.076904 C333.60083,563.305908 333.121908,565.024658 332.164062,566.233154 C331.197266,567.44165 329.894775,568.045898 328.256592,568.045898 Z" id="DAOTOKYO" fill="#000000" fill-rule="nonzero"></path>
        </g>
    </g>
</svg>