<svg width="600" height="900" viewBox="0 0 600 900" fill="none" xmlns="http://www.w3.org/2000/svg">
<g clip-path="url(#clip0_0_5)">
<path fill-rule="evenodd" clip-rule="evenodd" d="M0 0H600V900H0V0ZM544 40H176C167.169 40 160.009 47.1549 160 55.9842V56V84.7242C160 126.298 126.298 160 84.7243 160H40L56 160C47.1634 160 40 167.163 40 176V560H560V56C560 47.1634 552.837 40 544 40Z" fill="url(#paint0_linear_0_5)"/>
<path d="M40 560H560V844C560 852.837 552.837 860 544 860H56C47.1634 860 40 852.837 40 844V560Z" fill="white" fill-opacity="0.75"/>
<rect x="140" y="535" width="320" height="50" rx="8" fill="white"/>
<path d="M211.594 570.639V567.366H202.551V561.984H210.651V558.849H202.551V553.634H211.594V550.361H199V570.639H211.594Z" fill="black"/>
<path d="M213.669 553.634H219.605V570.639H223.156V553.634H229.093V550.361H213.669V553.634Z" fill="black"/>
<path d="M235.358 570.639V562.04H244.346V570.639H247.897V550.361H244.346V558.738H235.358V550.361H231.807V570.639H235.358Z" fill="black"/>
<path d="M259.692 570.639C265.573 570.639 269.623 566.506 269.623 560.542C269.623 554.494 265.49 550.361 259.498 550.361H252.396V570.639H259.692ZM259.165 553.634C263.354 553.634 265.878 556.242 265.878 560.542C265.878 564.758 263.409 567.366 259.359 567.366H255.947V553.634H259.165Z" fill="black"/>
<path d="M281.725 556.935V564.12C281.725 566.728 280.699 567.976 278.562 567.976C276.676 567.976 275.65 566.922 275.65 564.314V556.935H272.265V565.507C272.265 568.864 274.124 571 277.286 571C279.117 571 280.893 570.112 281.725 568.808L281.975 570.639H285.109V556.935H281.725Z" fill="black"/>
<path d="M291.74 570.639L291.962 568.503C292.766 570.085 294.514 571 296.567 571C300.506 571 303.086 568.087 303.086 563.871C303.086 559.543 300.7 556.491 296.789 556.491C294.708 556.491 292.877 557.407 291.989 558.933V550H288.605V570.639H291.74ZM292.017 563.732C292.017 561.263 293.543 559.543 295.873 559.543C298.259 559.543 299.674 561.291 299.674 563.732C299.674 566.173 298.259 567.893 295.873 567.893C293.543 567.893 292.017 566.201 292.017 563.732Z" fill="black"/>
<path d="M316.405 556.935L316.211 559.044C315.379 557.407 313.465 556.519 311.412 556.519C307.556 556.519 304.976 559.321 304.976 563.621C304.976 567.893 307.306 571 311.384 571C313.604 571 315.24 569.918 316.1 568.503L316.322 570.639H319.485V556.935H316.405ZM316.045 563.787C316.045 566.256 314.519 567.948 312.161 567.948C309.803 567.948 308.361 566.229 308.361 563.787C308.361 561.346 309.831 559.598 312.189 559.598C314.547 559.598 316.045 561.318 316.045 563.787Z" fill="black"/>
<path d="M324.676 554.189C325.785 554.189 326.701 553.273 326.701 552.136C326.701 550.999 325.785 550.111 324.676 550.111C323.51 550.111 322.595 550.999 322.595 552.136C322.595 553.273 323.51 554.189 324.676 554.189ZM322.983 570.639H326.368V556.935H322.983V570.639Z" fill="black"/>
<path d="M350.408 570.612V568.087H341.142L345.303 564.481C348.854 561.402 350.269 559.376 350.269 556.519C350.269 552.663 347.689 550.222 343.666 550.222C339.589 550.222 336.87 553.024 336.787 557.324H339.505C339.561 554.466 341.17 552.663 343.639 552.663C346.052 552.663 347.495 554.161 347.495 556.686C347.495 558.822 346.579 560.181 343.334 562.983L336.87 568.559V570.639L350.408 570.612Z" fill="black"/>
<path d="M352.91 560.625C352.91 566.867 355.989 571 361.177 571C366.336 571 369.416 566.867 369.416 560.625C369.416 554.411 366.198 550.194 361.177 550.194C356.128 550.194 352.91 554.411 352.91 560.625ZM355.601 560.625C355.601 555.631 357.653 552.635 361.177 552.635C364.7 552.635 366.725 555.631 366.725 560.625C366.725 565.563 364.7 568.559 361.177 568.559C357.653 568.559 355.601 565.563 355.601 560.625Z" fill="black"/>
<path d="M385.599 570.612V568.087H376.333L380.494 564.481C384.045 561.402 385.46 559.376 385.46 556.519C385.46 552.663 382.88 550.222 378.858 550.222C374.78 550.222 372.061 553.024 371.978 557.324H374.696C374.752 554.466 376.361 552.663 378.83 552.663C381.243 552.663 382.686 554.161 382.686 556.686C382.686 558.822 381.77 560.181 378.525 562.983L372.061 568.559V570.639L385.599 570.612Z" fill="black"/>
<path d="M393.952 560.264C397.142 560.264 398.806 561.873 398.806 564.287C398.806 566.867 397.114 568.531 394.506 568.531C391.982 568.531 390.373 567.005 390.373 564.398H387.682C387.682 568.559 390.512 570.972 394.451 570.972C398.529 570.972 401.58 568.392 401.58 564.342C401.58 560.736 399 558.433 395.588 558.017L401.081 552.774V550.583H388.625V552.996H397.641L391.954 558.461V560.264H393.952Z" fill="black"/>
<rect x="40" y="40" width="90" height="90" rx="45" fill="white"/>
<path d="M65.6546 70.2138C66.1861 69.2384 66.9531 68.4069 67.888 67.7925L83.5783 57.0007L67.5017 83.1847C67.5017 83.1847 66.097 80.8466 65.5492 79.6635C64.8665 78.176 64.5223 76.5596 64.5404 74.9272C64.5586 73.2949 64.9389 71.6862 65.6546 70.2138ZM59.179 88.2763C59.3561 90.7803 60.0744 93.218 61.2857 95.4264C62.4969 97.6349 64.1733 99.5627 66.2024 101.081L83.5572 113.001C83.5572 113.001 72.699 97.5878 63.5405 82.2509C62.6133 80.6305 61.99 78.859 61.7004 77.021C61.5722 76.1887 61.5722 75.3421 61.7004 74.5098C61.4616 74.9457 60.9981 75.8381 60.9981 75.8381C60.0694 77.7034 59.437 79.6983 59.1228 81.7528C58.942 83.9245 58.9608 86.1079 59.179 88.2763ZM103.426 90.3516C102.864 89.1687 101.474 86.8304 101.474 86.8304L85.4255 113.001L101.116 102.216C102.051 101.601 102.818 100.77 103.349 99.7946C104.065 98.3221 104.445 96.7134 104.463 95.0812C104.482 93.4488 104.137 91.8322 103.455 90.3447L103.426 90.3516ZM109.797 81.732C109.619 79.2281 108.901 76.7902 107.69 74.5819C106.479 72.3735 104.802 70.4455 102.773 68.9271L85.4464 57.0007C85.4464 57.0007 96.2976 72.4137 105.463 87.7505C106.388 89.3714 107.009 91.1429 107.296 92.9804C107.424 93.8127 107.424 94.6593 107.296 95.4916C107.535 95.0557 107.999 94.1633 107.999 94.1633C108.927 92.2979 109.56 90.3031 109.874 88.2485C110.057 86.077 110.041 83.8937 109.825 81.7251L109.797 81.732Z" fill="url(#paint1_linear_0_5)"/>
</g>
<defs>
<linearGradient id="paint0_linear_0_5" x1="399.65" y1="1006.67" x2="-605.801" y2="-173.154" gradientUnits="userSpaceOnUse">
<stop stop-color="#44BCF0"/>
<stop offset="0.378795" stop-color="#7298F8"/>
<stop offset="1" stop-color="#A099FF"/>
</linearGradient>
<linearGradient id="paint1_linear_0_5" x1="92.9702" y1="119.638" x2="36.0611" y2="28.4135" gradientUnits="userSpaceOnUse">
<stop stop-color="#44BCF0"/>
<stop offset="0.378795" stop-color="#7298F8"/>
<stop offset="1" stop-color="#A099FF"/>
</linearGradient>
<clipPath id="clip0_0_5">
<rect width="600" height="900" fill="white"/>
</clipPath>
</defs>
</svg>
